<svg width="46" height="30" viewBox="0 0 46 30" fill="none" xmlns="http://www.w3.org/2000/svg">
<path fill-rule="evenodd" clip-rule="evenodd" d="M45.5163 14.3439L42.7005 12.6582L41.0933 5.54308C40.8921 4.63154 40.3949 3.81735 39.683 3.23335C38.9711 2.64934 38.0868 2.33014 37.175 2.32857H29.0901V1C29.0901 0.734765 28.9874 0.480539 28.8044 0.292989C28.6214 0.10544 28.3732 0 28.1144 0H0.975775C0.716988 0 0.468771 0.10544 0.285781 0.292989C0.102791 0.480539 0 0.734765 0 1V24.9731C0 25.2384 0.102791 25.4926 0.285781 25.6802C0.468771 25.8677 0.716988 25.9731 0.975775 25.9731H4.09955C4.3154 27.1071 4.90926 28.129 5.77935 28.8636C6.64944 29.5982 7.74163 30 8.86892 30C9.99621 30 11.0885 29.5982 11.9586 28.8636C12.8287 28.129 13.4224 27.1071 13.6383 25.9731H30.5273C30.7432 27.1071 31.3369 28.129 32.207 28.8636C33.0771 29.5982 34.1693 30 35.2966 30C36.4239 30 37.5162 29.5982 38.3863 28.8636C39.2563 28.129 39.8501 27.1071 40.066 25.9731H45.0242C45.283 25.9731 45.5312 25.8677 45.7142 25.6802C45.8972 25.4926 46 25.2384 46 24.9731V15.2152C45.9995 15.0395 45.9548 14.867 45.87 14.7143C45.7852 14.5616 45.6634 14.4341 45.5163 14.3439ZM8.86407 27.9878C8.27981 27.992 7.70747 27.8181 7.21975 27.4883C6.73202 27.1586 6.35092 26.6878 6.12477 26.1357C5.89863 25.5835 5.83765 24.9749 5.9496 24.3872C6.06155 23.7994 6.34135 23.2591 6.75351 22.8347C7.16568 22.4102 7.6916 22.1207 8.26452 22.0031C8.83743 21.8856 9.43149 21.9452 9.97129 22.1744C10.5111 22.4036 10.9724 22.7919 11.2964 23.2902C11.6204 23.7885 11.7927 24.3743 11.7913 24.9731C11.7921 25.7704 11.4843 26.5354 10.9356 27.1005C10.3869 27.6655 9.64194 27.9848 8.86407 27.9878ZM27.1428 23.9588H13.6341C13.4183 22.8248 12.8244 21.803 11.9543 21.0684C11.0842 20.3338 9.99205 19.932 8.86475 19.932C7.73746 19.932 6.64527 20.3338 5.77518 21.0684C4.90509 21.803 4.31123 22.8248 4.09538 23.9588H1.94313V18.7583H27.1428V23.9588ZM27.1428 3.34322V16.7583H1.94313V2.0143H27.1428V3.34322ZM34.7244 4.34322H37.1763C37.6469 4.3438 38.1034 4.50816 38.4711 4.80921C38.8388 5.11026 39.0959 5.53006 39.2004 6.00035L40.6249 12.301H34.7244V4.34322ZM35.2904 27.9878C34.5464 27.9864 33.8307 27.6944 33.2891 27.1716C32.7474 26.6488 32.4203 25.9345 32.3742 25.1734C32.3862 25.1074 32.3928 25.0403 32.3938 24.9731C32.3935 24.9013 32.3869 24.8297 32.3742 24.759C32.4176 24.1769 32.6258 23.6203 32.9732 23.1577C33.3205 22.695 33.792 22.3462 34.3298 22.1542C34.8677 21.9621 35.4486 21.9352 36.0012 22.0764C36.5539 22.2176 37.0543 22.521 37.4412 22.9494C37.8281 23.3778 38.0846 23.9127 38.1794 24.4883C38.2742 25.0639 38.2031 25.6553 37.9748 26.1901C37.7465 26.7249 37.371 27.1798 36.8941 27.4991C36.4173 27.8184 35.86 27.9883 35.2904 27.9878ZM44.0554 19.187H42.2071V18.1298H44.0554V19.187ZM44.0554 16.1155H41.2355C40.9767 16.1155 40.7286 16.2209 40.5456 16.4084C40.3626 16.596 40.2598 16.8502 40.2598 17.1155V20.2013C40.2598 20.4665 40.3626 20.7211 40.5456 20.9086C40.7286 21.0962 40.9767 21.2016 41.2355 21.2016H44.0554V23.9588H40.059C39.8431 22.8248 39.2494 21.803 38.3793 21.0684C37.5092 20.3338 36.417 19.932 35.2897 19.932C34.1624 19.932 33.0701 20.3338 32.2001 21.0684C31.33 21.803 30.7362 22.8248 30.5203 23.9588H29.086V4.34322H32.7799V13.301C32.7784 13.568 32.8803 13.8245 33.0632 14.0146C33.2461 14.2048 33.4951 14.313 33.7556 14.3153H41.5909L44.0582 15.7869V16.1155H44.0554Z" fill="black"/>
</svg>
