<svg width="20" height="16" viewBox="0 0 20 16" fill="none" xmlns="http://www.w3.org/2000/svg">
<path opacity="0.5" fill-rule="evenodd" clip-rule="evenodd" d="M17.3531 16H2.64544C1.18638 16 0 14.8364 0 13.4065V2.59491C0 1.16364 1.18638 0 2.64544 0H17.3531C18.8122 0 20 1.16364 20 2.59491V13.4065C20 14.8364 18.8122 16 17.3531 16ZM2.64544 14.416H17.3531C17.9213 14.416 18.3839 13.9636 18.3839 13.4065V4.11491L10.4633 9.55055C10.3234 9.64509 10.162 9.69309 9.99929 9.69309C9.83796 9.69309 9.67521 9.64509 9.53673 9.55055L1.61468 4.11491V13.4065C1.61468 13.9636 2.07724 14.416 2.64544 14.416ZM17.3531 1.584H2.64544C2.20858 1.584 1.83882 1.85455 1.69034 2.23273L9.99929 7.93455L18.3097 2.23273C18.1598 1.85455 17.7914 1.584 17.3531 1.584Z" fill="#748EB4"/>
</svg>
