<svg width="15" height="20" viewBox="0 0 15 20" fill="none" xmlns="http://www.w3.org/2000/svg">
<mask id="path-1-outside-1" maskUnits="userSpaceOnUse" x="0" y="0" width="15" height="20" fill="black">
<rect fill="white" width="15" height="20"/>
<path fill-rule="evenodd" clip-rule="evenodd" d="M13 7.69033C13 4.55308 10.5323 2 7.5 2C4.46768 2 2 4.55308 2 7.69033C2 10.2851 4.27465 13.5608 6.13799 16.2441C6.52753 16.8051 6.89909 17.3402 7.22814 17.8377C7.37452 18.0541 7.6673 18.0541 7.79278 17.8377C8.09702 17.3827 8.43526 16.8962 8.78913 16.3873C10.673 13.678 13 10.3315 13 7.69033ZM11 7.47244C11 5.57087 9.42913 4 7.47244 4C5.57087 4 4 5.57087 4 7.47244C4 9.42913 5.57087 11 7.47244 11C9.42913 11 11 9.42913 11 7.47244Z"/>
</mask>
<path fill-rule="evenodd" clip-rule="evenodd" d="M13 7.69033C13 4.55308 10.5323 2 7.5 2C4.46768 2 2 4.55308 2 7.69033C2 10.2851 4.27465 13.5608 6.13799 16.2441C6.52753 16.8051 6.89909 17.3402 7.22814 17.8377C7.37452 18.0541 7.6673 18.0541 7.79278 17.8377C8.09702 17.3827 8.43526 16.8962 8.78913 16.3873C10.673 13.678 13 10.3315 13 7.69033ZM11 7.47244C11 5.57087 9.42913 4 7.47244 4C5.57087 4 4 5.57087 4 7.47244C4 9.42913 5.57087 11 7.47244 11C9.42913 11 11 9.42913 11 7.47244Z" fill="white"/>
<path d="M6.13799 16.2441L4.90592 17.0997L4.90592 17.0997L6.13799 16.2441ZM7.22814 17.8377L5.97699 18.6651L5.98135 18.6717L5.98578 18.6783L7.22814 17.8377ZM7.79278 17.8377L6.54581 17.004L6.5192 17.0438L6.49519 17.0852L7.79278 17.8377ZM8.78913 16.3873L7.55759 15.531L8.78913 16.3873ZM7.5 3.5C9.6562 3.5 11.5 5.33299 11.5 7.69033H14.5C14.5 3.77316 11.4084 0.5 7.5 0.5V3.5ZM3.5 7.69033C3.5 5.33299 5.3438 3.5 7.5 3.5V0.5C3.59156 0.5 0.5 3.77316 0.5 7.69033H3.5ZM7.37007 15.3886C6.42899 14.0334 5.44412 12.6122 4.68895 11.2192C3.91678 9.79475 3.5 8.60076 3.5 7.69033H0.5C0.5 9.37471 1.22054 11.1159 2.05154 12.6489C2.89953 14.2132 3.98365 15.7716 4.90592 17.0997L7.37007 15.3886ZM8.47929 17.0103C8.13907 16.4959 7.75724 15.9461 7.37007 15.3886L4.90592 17.0997C5.29782 17.6641 5.65911 18.1845 5.97699 18.6651L8.47929 17.0103ZM6.49519 17.0852C6.70533 16.7229 7.09976 16.5 7.5183 16.5C7.92678 16.5 8.27478 16.7079 8.4705 16.9972L5.98578 18.6783C6.6783 19.7019 8.34511 19.8753 9.09036 18.5902L6.49519 17.0852ZM7.55759 15.531C7.20557 16.0372 6.8591 16.5354 6.54581 17.004L9.03974 18.6714C9.33494 18.2299 9.66495 17.7552 10.0207 17.2437L7.55759 15.531ZM11.5 7.69033C11.5 8.62292 11.071 9.84559 10.2827 11.2976C9.51195 12.7175 8.50882 14.163 7.55759 15.531L10.0207 17.2437C10.9533 15.9024 12.0556 14.3199 12.9193 12.7289C13.7655 11.1701 14.5 9.39889 14.5 7.69033H11.5ZM7.47244 5.5C8.61612 5.5 9.5 6.41462 9.5 7.47244H12.5C12.5 4.72711 10.2421 2.5 7.47244 2.5V5.5ZM5.5 7.47244C5.5 6.39929 6.39929 5.5 7.47244 5.5V2.5C4.74244 2.5 2.5 4.74244 2.5 7.47244H5.5ZM7.47244 9.5C6.41462 9.5 5.5 8.61612 5.5 7.47244H2.5C2.5 10.2421 4.72711 12.5 7.47244 12.5V9.5ZM9.5 7.47244C9.5 8.60071 8.60071 9.5 7.47244 9.5V12.5C10.2576 12.5 12.5 10.2576 12.5 7.47244H9.5Z" fill="#B9C6D9" mask="url(#path-1-outside-1)"/>
</svg>
