<svg width="20" height="20" viewBox="0 0 20 20" fill="none" xmlns="http://www.w3.org/2000/svg">
<path d="M18.8815 16.3137C18.5685 17.0791 18.0121 17.8446 17.6644 18.1925C15.6822 20.1757 10.3617 18.4013 5.98005 14.0174C1.59843 9.6335 -0.175078 4.34501 1.80708 2.32704C2.15483 1.97911 2.95465 1.42243 3.68492 1.1093C4.24131 0.865747 4.90203 1.03971 5.28456 1.52681L7.47536 4.31022C7.92744 4.8669 7.85789 5.70193 7.30149 6.18903C6.74509 6.67612 6.36257 7.02405 6.25825 7.12843C5.42365 7.96345 6.64077 9.73788 8.48383 11.5819C10.3269 13.4259 12.0656 14.6784 12.935 13.8086C13.0393 13.7042 13.3871 13.3215 13.8739 12.7648C14.3608 12.2082 15.1606 12.1386 15.7517 12.5909L18.5337 14.7828C18.9858 15.0612 19.1249 15.7222 18.8815 16.3137Z" fill="white" stroke="#B9C6D9" stroke-width="1.5"/>
</svg>
