<svg width="30" height="30" viewBox="0 0 30 30" fill="none" xmlns="http://www.w3.org/2000/svg">
<path fill-rule="evenodd" clip-rule="evenodd" d="M15 30C6.715 30 0 23.2846 0 14.9992C0 6.71537 6.715 0 15 0C23.2833 0 30 6.71537 30 14.9992C30 23.2846 23.2833 30 15 30ZM15 3.33185C8.55667 3.33185 3.33333 8.55547 3.33333 14.9992C3.33333 21.4429 8.55667 26.6665 15 26.6665C21.4433 26.6665 26.6667 21.4429 26.6667 14.9992C26.6667 8.55547 21.4433 3.33185 15 3.33185ZM13.3333 16.6659V13.3324V8.33213H16.6667V13.3324H21.6667V16.6659H16.6667H13.3333Z" fill="white"/>
</svg>
